<svg width="183" height="48" viewBox="0 0 183 48" fill="none" xmlns="http://www.w3.org/2000/svg">
<path d="M35.0795 16.2727V9.90909H60.3636V16.2727H51.6136V39H43.8295V16.2727H35.0795ZM66.5604 39.3409C65.1683 39.3409 63.9373 39.1136 62.8672 38.6591C61.8066 38.1951 60.9732 37.4943 60.3672 36.5568C59.7611 35.6193 59.4581 34.4261 59.4581 32.9773C59.4581 31.7841 59.6617 30.7661 60.0689 29.9233C60.4761 29.071 61.0443 28.375 61.7734 27.8352C62.5026 27.2955 63.3501 26.8835 64.3161 26.5994C65.2914 26.3153 66.3426 26.1307 67.4695 26.0455C68.6911 25.9508 69.6712 25.8371 70.4098 25.7045C71.1579 25.5625 71.6977 25.3684 72.0291 25.1222C72.3606 24.8665 72.5263 24.5303 72.5263 24.1136V24.0568C72.5263 23.4886 72.3085 23.053 71.8729 22.75C71.4373 22.447 70.8786 22.2955 70.1967 22.2955C69.4486 22.2955 68.8378 22.4612 68.3643 22.7926C67.9003 23.1146 67.621 23.6117 67.5263 24.2841H60.3104C60.4051 22.9583 60.8265 21.7367 61.5746 20.6193C62.3321 19.4924 63.4354 18.5928 64.8842 17.9205C66.3331 17.2386 68.1418 16.8977 70.3104 16.8977C71.8729 16.8977 73.2744 17.0824 74.5149 17.4517C75.7554 17.8116 76.8113 18.3182 77.6825 18.9716C78.5537 19.6155 79.2166 20.3731 79.6712 21.2443C80.1352 22.1061 80.3672 23.0436 80.3672 24.0568V39H73.0376V35.9318H72.8672C72.4316 36.7462 71.9013 37.4044 71.2763 37.9062C70.6607 38.4081 69.9553 38.7727 69.1598 39C68.3738 39.2273 67.5073 39.3409 66.5604 39.3409ZM69.1172 34.3977C69.7138 34.3977 70.2725 34.2746 70.7933 34.0284C71.3236 33.7822 71.7545 33.4271 72.0859 32.9631C72.4174 32.4991 72.5831 31.9356 72.5831 31.2727V29.4545C72.3748 29.5398 72.1522 29.6203 71.9155 29.696C71.6882 29.7718 71.442 29.8428 71.1768 29.9091C70.9212 29.9754 70.6465 30.0369 70.353 30.0938C70.0689 30.1506 69.7706 30.2027 69.4581 30.25C68.852 30.3447 68.3549 30.5009 67.9666 30.7188C67.5878 30.9271 67.3037 31.1875 67.1143 31.5C66.9344 31.803 66.8445 32.1439 66.8445 32.5227C66.8445 33.1288 67.0575 33.5928 67.4837 33.9148C67.9098 34.2367 68.4543 34.3977 69.1172 34.3977ZM104.057 24.2841H96.8409C96.803 23.839 96.6468 23.4555 96.3722 23.1335C96.0975 22.8116 95.7424 22.5653 95.3068 22.3949C94.8807 22.215 94.4072 22.125 93.8864 22.125C93.214 22.125 92.6364 22.2481 92.1534 22.4943C91.6705 22.7405 91.4337 23.0909 91.4432 23.5455C91.4337 23.8674 91.571 24.1657 91.8551 24.4403C92.1487 24.715 92.7121 24.928 93.5455 25.0795L97.9773 25.875C100.212 26.2822 101.874 26.9687 102.963 27.9347C104.062 28.8911 104.616 30.1742 104.625 31.7841C104.616 33.3371 104.152 34.6866 103.233 35.8324C102.324 36.9687 101.079 37.8494 99.4972 38.4744C97.9252 39.09 96.1307 39.3977 94.1136 39.3977C90.7803 39.3977 88.1714 38.7159 86.2869 37.3523C84.4119 35.9886 83.3655 34.1894 83.1477 31.9545H90.9318C91.036 32.6458 91.3769 33.1809 91.9545 33.5597C92.5417 33.929 93.2803 34.1136 94.1705 34.1136C94.8902 34.1136 95.482 33.9905 95.946 33.7443C96.4195 33.4981 96.661 33.1477 96.6705 32.6932C96.661 32.2765 96.4527 31.9451 96.0455 31.6989C95.6477 31.4527 95.0227 31.2538 94.1705 31.1023L90.3068 30.4205C88.0814 30.0322 86.4148 29.2936 85.3068 28.2045C84.1989 27.1155 83.6496 25.714 83.6591 24C83.6496 22.4848 84.0473 21.2017 84.8523 20.1506C85.6667 19.09 86.8267 18.285 88.3324 17.7358C89.8475 17.1771 91.642 16.8977 93.7159 16.8977C96.8693 16.8977 99.3551 17.5511 101.173 18.858C103.001 20.1648 103.962 21.9735 104.057 24.2841Z" fill="#4EA8DE"/>
<path d="M114.675 33.8295L114.732 24.5114H115.754L121.038 17.1818H129.845L120.982 28.6023H118.766L114.675 33.8295ZM107.629 39V9.90909H115.47V39H107.629ZM121.095 39L116.095 30.3636L121.209 24.7955L130.072 39H121.095ZM131.887 39V17.1818H139.728V39H131.887ZM135.808 14.9091C134.747 14.9091 133.838 14.5587 133.08 13.858C132.323 13.1572 131.944 12.3144 131.944 11.3295C131.944 10.3447 132.323 9.50189 133.08 8.80114C133.838 8.10038 134.747 7.75 135.808 7.75C136.878 7.75 137.787 8.10038 138.535 8.80114C139.292 9.50189 139.671 10.3447 139.671 11.3295C139.671 12.3144 139.292 13.1572 138.535 13.858C137.787 14.5587 136.878 14.9091 135.808 14.9091ZM156.791 17.1818V22.8636H142.189V17.1818H156.791ZM144.973 39V16.5568C144.973 14.7576 145.295 13.2661 145.939 12.0824C146.583 10.8987 147.492 10.0133 148.666 9.42614C149.84 8.83901 151.223 8.54545 152.814 8.54545C153.808 8.54545 154.774 8.62121 155.712 8.77273C156.659 8.92424 157.359 9.05682 157.814 9.17045L156.678 14.7955C156.393 14.7102 156.062 14.6439 155.683 14.5966C155.304 14.5398 154.973 14.5114 154.689 14.5114C153.95 14.5114 153.453 14.6676 153.197 14.9801C152.942 15.2926 152.814 15.7045 152.814 16.2159V39H144.973ZM164.589 47.1818C163.69 47.1818 162.833 47.1108 162.018 46.9688C161.204 46.8362 160.489 46.6515 159.874 46.4148L161.578 40.8466C162.222 41.0739 162.809 41.2206 163.339 41.2869C163.879 41.3532 164.339 41.3153 164.717 41.1733C165.106 41.0313 165.385 40.7614 165.555 40.3636L165.726 39.9659L158.055 17.1818H166.237L169.76 32.2955H169.987L173.567 17.1818H181.805L173.851 40.8182C173.453 42.0208 172.875 43.1004 172.118 44.0568C171.37 45.0227 170.385 45.785 169.163 46.3438C167.942 46.9025 166.417 47.1818 164.589 47.1818Z" fill="#5E60CE"/>
<g clip-path="url(#clip0_43_109)">
<path d="M11.0215 12.933C14.1472 16.9011 15.8158 21.7944 15.7553 26.8155V28.0141L16.7865 28.6416C18.119 29.4482 19.1127 30.6993 19.5866 32.1669C19.1705 31.8605 18.7352 31.5803 18.2833 31.3278L15.5333 29.7838L15.0391 32.9001C14.9963 33.1755 14.9389 33.4485 14.8672 33.718H7.16151C7.04692 33.3655 6.95382 33.0129 6.86789 32.6463L6.24484 29.8261L3.70968 31.2362C3.28615 31.473 2.87723 31.7344 2.48507 32.0188C2.96824 30.5682 3.94123 29.3242 5.24224 28.4935L6.22336 27.866V26.7521C6.24106 21.7513 7.92967 16.8952 11.0287 12.933H11.0215ZM11.0287 10C10.868 10.0004 10.7128 10.058 10.5918 10.1622L10.5274 10.2186C6.39778 14.7656 4.10466 20.6454 4.08208 26.745C2.32967 27.8643 1.03251 29.5543 0.417263 31.5197C-0.197979 33.485 -0.0921719 35.6007 0.716194 37.4971C1.56776 35.6455 2.99131 34.1058 4.7839 33.0975C4.96368 33.8642 5.2031 34.6161 5.50005 35.3467C5.53771 35.4871 5.62118 35.6114 5.73763 35.7006C5.85408 35.7898 5.99706 35.8388 6.14458 35.8402H16.0847C16.2852 35.8402 16.4857 35.6498 16.586 35.3537C16.8758 34.6592 17.0778 33.9322 17.1875 33.1892C18.9836 34.1932 20.4083 35.7342 21.2553 37.5887C22.1124 35.7017 22.2451 33.5727 21.6287 31.5967C21.0124 29.6206 19.6888 27.9319 17.9037 26.8437C17.9745 20.7082 15.6935 14.7718 11.5157 10.2186C11.4535 10.1501 11.3773 10.0952 11.2922 10.0576C11.2071 10.0199 11.1149 10.0003 11.0215 10H11.0287Z" fill="#4EA8DE"/>
<path d="M11.0216 26.1598C10.4715 26.1598 9.93376 25.9995 9.47611 25.699C9.01846 25.3986 8.6614 24.9715 8.44993 24.4716C8.23847 23.9716 8.18206 23.4213 8.28782 22.8898C8.39358 22.3584 8.65678 21.8697 9.04423 21.4853C9.43169 21.1009 9.92606 20.838 10.465 20.7298C11.004 20.6216 11.5634 20.6729 12.0728 20.8773C12.5822 21.0816 13.0188 21.4298 13.3275 21.8781C13.6361 22.3263 13.8031 22.8545 13.8074 23.396C13.8159 23.7469 13.7542 24.0961 13.6256 24.4235C13.4971 24.751 13.3043 25.0503 13.0582 25.3043C12.8121 25.5583 12.5176 25.7622 12.1915 25.9041C11.8654 26.0461 11.5141 26.1234 11.1576 26.1316C11.1126 26.1387 11.0666 26.1387 11.0216 26.1316V26.1598Z" fill="#4EA8DE"/>
<path d="M14.8959 37.5958C14.7167 37.5901 14.5382 37.6198 14.3708 37.683C14.2034 37.7462 14.0505 37.8416 13.9211 37.9638C13.7917 38.086 13.6884 38.2323 13.6172 38.3943C13.546 38.5563 13.5084 38.7307 13.5066 38.9072V43.067C13.5066 43.4297 13.653 43.7776 13.9135 44.0342C14.1741 44.2907 14.5274 44.4348 14.8959 44.4348C15.2644 44.4348 15.6178 44.2907 15.8783 44.0342C16.1389 43.7776 16.2852 43.4297 16.2852 43.067V38.9636C16.291 38.7877 16.2611 38.6126 16.1973 38.4482C16.1336 38.2839 16.0372 38.1337 15.9139 38.0064C15.7906 37.879 15.6428 37.7772 15.4791 37.7067C15.3154 37.6362 15.139 37.5985 14.9604 37.5958H14.8959Z" fill="#5E60CE"/>
<path d="M7.16154 37.5958C6.97931 37.5863 6.797 37.613 6.62546 37.6743C6.45392 37.7356 6.29665 37.8302 6.16302 37.9526C6.02939 38.0749 5.92213 38.2225 5.84761 38.3865C5.77309 38.5505 5.73284 38.7275 5.72925 38.9072V43.067C5.72925 43.4297 5.87562 43.7777 6.13617 44.0342C6.39672 44.2907 6.7501 44.4348 7.11857 44.4348C7.48704 44.4348 7.84042 44.2907 8.10097 44.0342C8.36152 43.7777 8.50789 43.4297 8.50789 43.067V38.9636C8.51362 38.7877 8.48373 38.6126 8.41998 38.4482C8.35623 38.2839 8.25989 38.1337 8.13658 38.0064C8.01326 37.879 7.86544 37.7772 7.70173 37.7067C7.53802 37.6362 7.36169 37.5985 7.18302 37.5958H7.16154Z" fill="#5E60CE"/>
<path d="M10.9213 37.5958C10.7426 37.592 10.5649 37.623 10.3984 37.6869C10.2318 37.7507 10.0797 37.8463 9.95068 37.9681C9.82167 38.0899 9.71828 38.2355 9.64644 38.3966C9.5746 38.5577 9.5357 38.7312 9.53198 38.9072V44.6392C9.53198 45.002 9.67836 45.3499 9.93891 45.6064C10.1995 45.8629 10.5528 46.007 10.9213 46.007C11.2898 46.007 11.6432 45.8629 11.9037 45.6064C12.1643 45.3499 12.3106 45.002 12.3106 44.6392V38.9988C12.3164 38.823 12.2865 38.6478 12.2227 38.4835C12.159 38.3191 12.0626 38.1689 11.9393 38.0416C11.816 37.9143 11.6682 37.8124 11.5045 37.7419C11.3408 37.6714 11.1644 37.6337 10.9858 37.631L10.9213 37.5958Z" fill="#5E60CE"/>
</g>
<defs>
<clipPath id="clip0_43_109">
<rect width="22" height="36" fill="white" transform="translate(0 10)"/>
</clipPath>
</defs>
</svg>
